<svg version="1.1" id="Layer_3" xmlns="http://www.w3.org/2000/svg" xmlns:xlink="http://www.w3.org/1999/xlink" x="0px" y="0px" viewBox="0 0 64 64" style="enable-background:new 0 0 64 64;" xml:space="preserve">
<g>
<path d="M56.707,51.293l-8.556-8.556C52.97,38.344,56,32.019,56,25C56,11.767,45.233,1,32,1S8,11.767,8,25
		c0,7.019,3.03,13.344,7.849,17.737l-8.556,8.556c-0.286,0.286-0.372,0.716-0.217,1.09C7.231,52.756,7.596,53,8,53h9v9
		c0,0.404,0.244,0.769,0.617,0.924C17.741,62.975,17.871,63,18,63c0.26,0,0.516-0.102,0.707-0.293L32,49.414l13.293,13.293
		C45.484,62.898,45.74,63,46,63c0.129,0,0.259-0.025,0.383-0.076C46.756,62.769,47,62.404,47,62v-9h9
		c0.404,0,0.769-0.244,0.924-0.617C57.079,52.009,56.993,51.579,56.707,51.293z M45.395,36.981
		c2.644-2.953,4.321-6.773,4.554-10.981h4.025c-0.239,5.313-2.37,10.142-5.735,13.825L45.395,36.981z M32,41
		c-8.822,0-16-7.178-16-16S23.178,9,32,9s16,7.178,16,16S40.822,41,32,41z M49.949,24c-0.233-4.209-1.91-8.029-4.554-10.981
		l2.844-2.844c3.366,3.684,5.496,8.512,5.735,13.825H49.949z M43.981,11.605C41.029,8.961,37.209,7.284,33,7.051V3.025
		c5.313,0.239,10.142,2.37,13.825,5.735L43.981,11.605z M31,7.051c-4.209,0.233-8.029,1.91-10.981,4.554l-2.844-2.844
		C20.858,5.395,25.687,3.264,31,3.025V7.051z M18.605,13.019c-2.644,2.953-4.321,6.773-4.554,10.981h-4.025
		c0.239-5.313,2.37-10.142,5.735-13.825L18.605,13.019z M14.051,26c0.233,4.209,1.91,8.029,4.554,10.981l-2.844,2.844
		c-3.366-3.684-5.496-8.512-5.735-13.825H14.051z M17.175,41.239l2.844-2.844c2.953,2.644,6.773,4.321,10.981,4.554v4.025
		C25.687,46.736,20.858,44.605,17.175,41.239z M33,42.949c4.209-0.233,8.029-1.91,10.981-4.554l2.844,2.844
		c-3.684,3.366-8.512,5.496-13.825,5.735V42.949z M18,51h-7.586l6.977-6.977c3.477,2.677,7.703,4.424,12.307,4.865L19,59.586V52
		C19,51.448,18.552,51,18,51z M46,51c-0.552,0-1,0.448-1,1v7.586L34.301,48.887c4.604-0.44,8.83-2.188,12.307-4.865L53.586,51H46z" id="id_101" style="fill: rgb(230, 209, 21);"></path>
<path d="M38.879,17c-0.834,0-1.618,0.325-2.207,0.914L29,25.586l-0.672-0.672C27.739,24.325,26.955,24,26.121,24
		C24.4,24,23,25.4,23,27.121c0,0.834,0.325,1.618,0.914,2.207L26.586,32c0.645,0.645,1.502,1,2.414,1s1.77-0.355,2.414-1
		l9.672-9.672C41.675,21.739,42,20.955,42,20.121C42,18.4,40.6,17,38.879,17z M39.672,20.914L30,30.586
		c-0.526,0.526-1.474,0.526-2,0l-2.672-2.672C25.117,27.702,25,27.421,25,27.121C25,26.503,25.503,26,26.121,26
		c0.3,0,0.581,0.117,0.793,0.328l1.379,1.379c0.391,0.391,1.023,0.391,1.414,0l8.379-8.379C38.298,19.117,38.579,19,38.879,19
		C39.497,19,40,19.503,40,20.121C40,20.421,39.883,20.702,39.672,20.914z" id="id_102" style="fill: rgb(224, 203, 18);"></path>
</g>
</svg>